<?xml version="1.0" standalone="no"?>
<!DOCTYPE svg PUBLIC "-//W3C//DTD SVG 20010904//EN"
 "http://www.w3.org/TR/2001/REC-SVG-20010904/DTD/svg10.dtd">
<svg version="1.0" xmlns="http://www.w3.org/2000/svg"
 width="1696.000000pt" height="1696.000000pt" viewBox="0 0 1696.000000 1696.000000"
 preserveAspectRatio="xMidYMid meet">
<metadata>
Created by potrace 1.14, written by Peter Selinger 2001-2017
</metadata>
<g transform="translate(0.000000,1696.000000) scale(0.100000,-0.100000)"
fill="#000000" stroke="none">
<path d="M5773 14985 c-13 -9 -28 -34 -34 -56 -7 -22 -21 -45 -31 -50 -26 -14
-41 -48 -82 -191 -42 -149 -93 -272 -189 -458 -98 -191 -265 -491 -365 -655
-173 -285 -191 -325 -227 -510 -37 -191 -16 -511 45 -669 8 -22 3 -30 -43 -73
-76 -71 -336 -332 -382 -383 -223 -249 -465 -580 -634 -870 -90 -154 -260
-503 -329 -675 -69 -171 -155 -426 -187 -550 -5 -16 -9 -34 -11 -40 -16 -52
-75 -301 -80 -340 -3 -16 -9 -50 -14 -75 -22 -108 -54 -341 -65 -477 -6 -61
-10 -71 -46 -111 -188 -203 -420 -332 -644 -358 -145 -17 -290 -1 -430 47 -61
21 -213 93 -229 109 -4 5 6 15 23 24 51 27 158 134 196 197 37 59 78 168 91
236 13 73 12 235 -2 297 -56 241 -267 392 -522 373 -115 -9 -204 -45 -278
-114 -39 -37 -104 -129 -108 -156 -1 -6 -4 -16 -8 -22 -20 -34 -39 -169 -37
-269 3 -199 47 -356 144 -510 l53 -84 -37 -7 c-20 -4 -45 -9 -56 -11 -52 -9
-119 -14 -225 -14 -127 0 -248 9 -335 26 -16 3 -39 7 -50 9 -11 1 -38 5 -60 9
-32 5 -29 2 20 -14 67 -23 238 -65 300 -74 22 -3 63 -9 90 -13 56 -9 353 -10
400 -2 25 5 37 -1 75 -37 172 -162 434 -307 631 -350 99 -21 152 -27 279 -29
137 -3 249 8 370 35 25 6 54 12 65 14 11 3 49 14 85 25 36 11 67 20 70 20 3 0
38 14 79 31 41 16 75 29 77 28 1 -2 5 -52 8 -113 3 -60 8 -126 10 -145 3 -19
7 -66 10 -104 4 -37 8 -71 10 -75 2 -3 6 -33 10 -66 5 -50 23 -165 41 -260
111 -590 336 -1182 654 -1714 28 -47 49 -87 46 -89 -2 -2 -46 6 -97 17 -51 12
-103 23 -116 26 -13 2 -31 6 -40 9 -9 3 -29 7 -45 10 -15 3 -35 7 -45 10 -9 3
-28 7 -42 10 -14 2 -56 12 -95 21 -38 9 -81 19 -95 21 -14 2 -36 7 -50 11 -14
3 -29 7 -35 7 -5 1 -27 -27 -48 -61 -21 -35 -40 -63 -42 -63 -3 0 4 23 16 51
11 29 18 53 17 54 -2 1 -462 154 -1023 339 -561 186 -1064 353 -1117 371 -54
19 -100 30 -103 25 -5 -8 -119 -349 -346 -1040 -61 -184 -113 -342 -116 -350
-3 -8 -7 -19 -8 -25 -2 -5 -44 -134 -94 -285 -50 -151 -141 -426 -202 -610
-61 -184 -113 -342 -116 -350 -3 -8 -7 -19 -9 -25 -1 -5 -16 -50 -33 -100 -22
-66 -27 -92 -18 -97 7 -4 70 -26 142 -49 71 -23 133 -45 137 -48 4 -4 -2 -35
-13 -70 -10 -35 -18 -65 -17 -66 2 -2 237 -80 523 -175 286 -95 566 -188 622
-206 56 -19 104 -34 107 -34 2 0 69 195 147 434 l143 434 90 -30 c50 -17 112
-38 138 -47 l47 -16 -205 -359 c-112 -197 -204 -360 -204 -361 0 -1 39 -12 88
-24 92 -22 104 -24 192 -42 30 -6 57 -12 59 -14 2 -2 -15 -36 -38 -75 -22 -40
-41 -75 -41 -80 0 -7 21 -13 100 -26 14 -3 33 -7 42 -10 9 -3 25 -7 35 -9 10
-2 47 -11 83 -19 36 -8 106 -23 155 -34 50 -11 205 -45 345 -77 308 -69 270
-60 358 -79 40 -9 75 -16 77 -16 2 0 50 81 106 180 56 99 104 179 106 177 3
-4 11 -105 12 -172 2 -52 9 -63 50 -70 59 -10 192 -43 197 -48 6 -6 11 -59 13
-128 1 -46 1 -47 43 -57 40 -11 749 -169 793 -178 11 -2 72 -15 135 -30 63
-14 124 -28 135 -30 34 -7 56 -12 152 -33 115 -26 111 -26 106 4 -4 19 -2 24
13 21 32 -6 155 -22 242 -32 29 -3 61 -7 70 -9 10 -2 45 -6 77 -10 33 -4 71
-8 85 -10 14 -2 63 -9 110 -15 47 -6 99 -12 115 -15 17 -2 73 -9 125 -15 52
-6 106 -13 120 -16 14 -2 48 -6 75 -9 28 -3 67 -8 88 -11 31 -4 37 -2 38 13 0
10 2 27 4 38 2 11 7 44 10 74 3 30 8 57 10 61 2 3 28 5 57 4 29 -2 88 -3 130
-3 l77 -1 -5 -115 -4 -115 37 -1 c21 0 76 -2 123 -4 47 -2 150 -7 230 -10 288
-11 377 -15 480 -20 607 -27 893 -27 1030 0 14 2 39 7 55 11 69 13 195 58 265
95 142 74 266 211 351 388 24 50 46 91 49 91 10 0 87 -68 181 -161 277 -272
624 -410 1017 -403 95 2 223 12 245 19 7 2 28 6 47 9 45 7 202 49 259 71 121
45 269 131 373 217 28 23 63 42 90 47 23 5 52 11 63 14 11 3 39 8 62 12 l42 7
-4 -34 c-2 -18 -7 -62 -10 -98 -3 -36 -8 -86 -11 -113 -3 -26 -2 -47 3 -47 4
0 26 5 48 10 22 5 51 11 65 14 14 2 90 18 170 35 80 17 156 32 170 35 14 2 45
9 70 15 25 5 59 12 75 15 17 3 75 15 130 27 55 11 111 23 125 25 14 3 53 11
86 19 34 8 75 17 90 19 163 30 174 34 176 70 0 17 2 42 3 56 2 14 6 59 9 100
4 41 9 91 11 110 3 19 7 71 11 115 3 44 8 82 10 85 4 4 25 8 67 13 14 1 30
-20 64 -87 l46 -88 36 5 c20 3 48 8 62 11 25 6 30 -1 89 -117 34 -67 65 -125
69 -129 3 -4 114 16 246 43 132 27 308 63 390 80 83 17 157 32 165 34 8 2 92
19 185 39 378 78 382 79 381 93 -1 10 155 66 504 184 278 93 510 171 516 173
8 3 0 38 -23 106 -18 57 -32 104 -30 106 2 2 36 -37 76 -86 40 -50 75 -90 78
-90 4 0 128 41 277 91 149 50 458 154 686 230 228 77 421 141 428 144 12 4
-33 63 -118 155 -16 17 -35 39 -140 160 -36 41 -67 77 -70 80 -3 3 -35 39 -70
80 -68 81 -261 302 -270 310 -21 19 -200 231 -200 237 0 3 6 14 14 22 28 32
87 161 108 237 17 64 21 108 22 229 0 130 -4 164 -26 256 -66 262 -209 480
-399 610 -32 22 -59 43 -59 48 0 18 -142 148 -215 195 -96 63 -173 97 -280
127 -103 28 -115 30 -270 34 -143 3 -254 -11 -400 -50 -49 -14 -418 -135 -820
-271 -401 -135 -740 -248 -753 -251 -12 -3 -25 -9 -28 -14 -5 -9 317 -987 337
-1023 6 -10 7 -16 1 -12 -6 3 -24 32 -40 63 -17 32 -42 78 -56 103 -14 25 -34
61 -44 80 -47 89 -227 409 -248 442 -13 21 -24 45 -24 53 0 11 -6 15 -17 12
-10 -3 -39 -8 -65 -12 l-48 -6 -21 44 -21 44 28 44 c16 24 34 53 40 64 6 11
31 52 54 90 128 208 290 538 387 790 82 212 189 559 219 709 2 11 13 65 24
120 24 114 46 237 56 311 3 28 7 57 9 65 2 8 6 47 10 85 3 39 8 84 10 100 27
219 27 781 0 1005 -2 14 -6 55 -10 92 -3 37 -8 75 -10 86 -2 10 -6 43 -10 72
-4 29 -9 62 -11 74 -2 12 -9 48 -14 81 -17 103 -20 119 -26 145 -3 14 -8 36
-10 50 -3 14 -22 95 -44 180 -135 534 -358 1053 -653 1520 -54 86 -243 358
-257 370 -3 3 -21 25 -40 50 -62 81 -253 303 -330 383 -41 43 -76 85 -78 92
-2 7 8 31 21 52 87 138 139 306 139 448 -1 194 -50 382 -169 645 -41 91 -78
174 -83 185 -25 58 -90 235 -90 247 0 8 -4 18 -9 24 -25 26 -104 352 -140 579
-35 217 -45 258 -76 300 -11 17 -29 51 -39 78 -10 26 -26 52 -36 57 -44 24
-64 12 -176 -101 -93 -94 -247 -228 -322 -278 -12 -8 -56 -39 -99 -69 -218
-151 -642 -422 -661 -422 -6 0 -12 -3 -14 -7 -1 -5 -19 -17 -38 -27 -140 -76
-253 -174 -348 -302 -29 -38 -56 -74 -61 -80 -7 -9 -31 -6 -93 12 -95 28 -344
87 -433 103 -33 6 -71 13 -85 16 -34 7 -135 23 -190 30 -25 3 -61 7 -80 10
-81 10 -218 23 -332 30 -82 6 -530 6 -588 1 -25 -3 -85 -7 -135 -10 -49 -4
-103 -8 -120 -11 -16 -2 -52 -7 -80 -9 -95 -10 -262 -35 -345 -52 -14 -3 -38
-7 -55 -10 -16 -3 -44 -9 -61 -13 -30 -8 -33 -6 -85 67 -78 110 -246 276 -379
374 -317 235 -559 478 -797 799 -86 115 -142 175 -178 189 -34 13 -37 13 -62
-5z m-3966 -5571 c99 -33 144 -92 144 -188 0 -132 -95 -322 -227 -454 -64 -64
-65 -64 -86 -46 -34 31 -98 121 -128 182 -84 170 -83 367 3 450 66 64 196 89
294 56z"/>
</g>
</svg>
